<!-- icon666.com - MILLIONS vector ICONS FREE --><svg viewBox="0 0 400.00013 400" fill="#85ce85" xmlns="http://www.w3.org/2000/svg"><path d="m395.367188 104.742188c-2.824219-1.308594-6.15625-.859376-8.535157 1.152343l-102.648437 86.859375-86.289063 23.527344c-1.34375.367188-2.566406 1.078125-3.550781 2.0625l-8.152344 8.152344 6.648438-66.457032 3.199218-.710937c6.945313-1.460937 12.988282-5.707031 16.722657-11.742187 3.214843-5.292969 4.082031-11.683594 2.398437-17.640626-2.566406-8.269531-9.222656-14.621093-17.601562-16.800781l2.441406-24.34375c.441406-4.398437-2.765625-8.324219-7.164062-8.765625-4.398438-.441406-8.320313 2.765625-8.765626 7.164063l-2.597656 25.992187-20.066406 4.449219c-12.839844-11.0625-26.703125-20.878906-41.40625-29.3125-11.777344-3.472656-31.65625-.871094-36.800781 12.855469l-33.269531 88.417968c-1.570313 4.21875-2.148438 8.742188-1.691407 13.222657l-30.511719 76.273437c-4.238281 10.59375-.425781 22.710938 9.113282 28.972656l-20.398438 4.089844c-3.742187.742188-6.43749975 4.027344-6.441406 7.839844v32c0 2.511719 1.179688 4.875 3.183594 6.386719 2.003906 1.507812 4.601562 1.992187 7.015625 1.300781l56.671875-16.214844 104-40c1.046875-.40625 2-1.023437 2.792968-1.816406l46.496094-46.457031 85.945313-23.4375c1.085937-.296875 2.09375-.816407 2.964843-1.53125l88-72c1.867188-1.527344 2.941407-3.816407 2.929688-6.230469v-40c0-3.113281-1.808594-5.945312-4.632812-7.257812zm-11.367188 43.464843-83.742188 68.519531-86.363281 23.554688c-1.34375.367188-2.566406 1.078125-3.550781 2.0625l-46.800781 46.800781-101.734375 39.199219-45.808594 13.046875v-14.832031l33.601562-6.71875c.441407-.085938.878907-.210938 1.300782-.367188l104-40c1.046875-.40625 2-1.023437 2.792968-1.816406l46.464844-46.457031 85.945313-23.4375c1.125-.308594 2.167969-.851563 3.0625-1.601563l90.832031-76.910156zm-268.800781-44.648437c13.601562 8.914062 26.6875 18.585937 39.199219 28.96875 1.882812 1.523437 4.355468 2.113281 6.722656 1.601562l26.183594-5.800781c5.078124-1.457031 10.441406 1.121094 12.472656 6 .476562 1.722656.214844 3.566406-.730469 5.089844-1.457031 2.25-3.765625 3.808593-6.398437 4.324219l-36.105469 8c-3.558594.8125-7.292969-.074219-10.109375-2.398438l-15.449219-13.6875c-1.976563-1.75-4.683594-2.410156-7.242187-1.769531-2.558594.636719-4.636719 2.496093-5.558594 4.96875l-18.945313 50.402343c-.890625 2.441407-.539062 5.164063.941407 7.300782 1.480468 2.136718 3.910156 3.417968 6.507812 3.441406h29.105469c3.152343-.070312 6.183593 1.21875 8.320312 3.535156 1.570313 1.734375 2.113281 4.164063 1.421875 6.402344l-18.046875 56c-2.757812 5.40625-9.339843 7.613281-14.800781 4.957031-3.71875-1.535156-5.65625-5.648437-4.472656-9.496093l11.265625-34.949219c.78125-2.433594.355469-5.097657-1.152344-7.160157-1.503906-2.066406-3.90625-3.289062-6.464844-3.289062h-28.800781c-6.476562.191406-12.640625-2.796875-16.503906-8-2.683594-3.691406-3.316406-8.488281-1.6875-12.75l33.25-88.402344c1.078125-2.757812 10.007812-5.34375 17.078125-3.289062zm-57.429688 118.503906c3.957031 3.769531 8.738281 6.566406 13.964844 8.160156l-24.292969 60.753906c-1.679687 4.066407-6.300781 6.046876-10.402344 4.457032-4.101562-1.644532-6.097656-6.300782-4.453124-10.402344zm4.527344 74.859375 25.96875-64.921875h12.613281l-7.894531 24.496094c-3.070313 9.707031.394531 20.292968 8.617187 26.304687l-39.953124 15.367188c.230468-.425781.472656-.808594.648437-1.246094zm106.03125-52.554687-20.800781 20.800781-3.414063 1.320312 16.6875-51.632812c2.402344-7.507813.710938-15.726563-4.457031-21.679688-5.167969-5.933593-12.683594-9.289062-20.550781-9.175781h-17.554688l10.792969-28.679688 6.746094 5.976563c6.65625 5.707031 15.617187 7.945313 24.175781 6.03125l16.4375-3.640625zm0 0"></path><path d="m144 80c22.089844 0 40-17.910156 40-40s-17.910156-40-40-40-40 17.910156-40 40c.027344 22.082031 17.917969 39.972656 40 40zm0-64c13.253906 0 24 10.746094 24 24s-10.746094 24-24 24-24-10.746094-24-24 10.746094-24 24-24zm0 0"></path><path d="m18.785156 191.359375h.917969 21.328125c4.417969 0 8-3.582031 8-8s-3.582031-8-8-8h-21.832031c-2.675781-2.347656-3.800781-6.007813-2.902344-9.457031 4.800781-17.277344 8.375-29.503906 10.328125-35.351563 8.117188-24.375 14.414062-34.550781 32.414062-34.550781h20.960938c4.417969 0 8-3.582031 8-8s-3.582031-8-8-8h-20.960938c-29.949218 0-39.597656 21.503906-47.589843 45.472656-2.570313 7.703125-7.152344 23.894532-10.554688 36.121094-2.191406 8.109375-.261719 16.78125 5.160157 23.199219 3.074218 3.953125 7.726562 6.355469 12.730468 6.566406zm0 0"></path><path d="m392 176c-4.417969 0-8 3.582031-8 8v200h-368v-8c0-4.417969-3.582031-8-8-8s-8 3.582031-8 8v16c0 4.417969 3.582031 8 8 8h384c4.417969 0 8-3.582031 8-8v-208c0-4.417969-3.582031-8-8-8zm0 0"></path><path d="m232 320c2.121094 0 4.15625-.84375 5.65625-2.34375l32-32c3.03125-3.140625 2.988281-8.128906-.097656-11.214844-3.085938-3.085937-8.074219-3.128906-11.214844-.097656l-32 32c-2.285156 2.289062-2.972656 5.730469-1.734375 8.71875s4.15625 4.9375 7.390625 4.9375zm0 0"></path><path d="m328 296c2.121094 0 4.15625-.84375 5.65625-2.34375l16-16c3.03125-3.140625 2.988281-8.128906-.097656-11.214844-3.085938-3.085937-8.074219-3.128906-11.214844-.097656l-16 16c-2.285156 2.289062-2.972656 5.730469-1.734375 8.71875s4.15625 4.9375 7.390625 4.9375zm0 0"></path><path d="m258.34375 338.34375c-3.121094 3.125-3.121094 8.1875 0 11.3125l16 16c3.140625 3.03125 8.128906 2.988281 11.214844-.097656 3.085937-3.085938 3.128906-8.074219.097656-11.214844l-16-16c-3.125-3.121094-8.1875-3.121094-11.3125 0zm0 0"></path><path d="m176 368c2.121094 0 4.15625-.84375 5.65625-2.34375l16-16c3.03125-3.140625 2.988281-8.128906-.097656-11.214844-3.085938-3.085937-8.074219-3.128906-11.214844-.097656l-16 16c-2.285156 2.289062-2.972656 5.730469-1.734375 8.71875s4.15625 4.9375 7.390625 4.9375zm0 0"></path><path d="m106.351562 373.65625c3.140626 3.03125 8.128907 2.988281 11.214844-.097656 3.085938-3.085938 3.128906-8.074219.097656-11.214844l-16-16c-3.125-3.121094-8.1875-3.121094-11.3125 0-2.65625 2.695312-3.019531 6.898438-.863281 10.007812.242188.464844.53125.902344.863281 1.304688zm0 0"></path><path d="m338.34375 330.34375c-3.121094 3.125-3.121094 8.1875 0 11.3125l16 16c3.140625 3.03125 8.128906 2.988281 11.214844-.097656 3.085937-3.085938 3.128906-8.074219.097656-11.214844l-16-16c-3.125-3.121094-8.1875-3.121094-11.3125 0zm0 0"></path></svg>