<!-- icon666.com - MILLIONS vector ICONS FREE --><svg id="Layer_1" enable-background="new 0 0 510 510" viewBox="0 0 510 510" fill="#85ce85" xmlns="http://www.w3.org/2000/svg"><path d="m510 216.172-16.898-84.49c-4.432-22.156-16.788-36.856-36.729-43.692-17.756-6.087-39.808-5.332-59.664-5.332h-396.709v300h61.898c16.002 59.64 100.224 59.6 116.203 0h153.797c16.002 59.64 100.224 59.6 116.203 0h61.899zm-107.774-103.523c41.839-.109 56.859 1.922 61.458 24.916l13.02 65.093h-128.954c-9.787 0-17.75-7.963-17.75-17.75 0-15.368 0-57.4 0-72.25 75.618-.005 66.228.006 72.226-.009zm77.774 120.008v30c-19.555 0-36.228-12.541-42.42-30zm-210-60v-60h30v60zm-180-60h30v60h-30zm60 0h30v60h-30zm60 0h30v60h-30zm-90 285c-16.542 0-30-13.458-30-30 1.508-39.744 58.498-39.734 60 0 0 16.542-13.458 30-30 30zm120-45v-60h30v60zm150 45c-16.542 0-30-13.458-30-30 1.508-39.744 58.498-39.734 60 0 0 16.542-13.458 30-30 30zm90-45h-31.898c-16.002-59.64-100.224-59.6-116.203 0h-31.899v-90h-90v90h-31.898c-16.002-59.64-100.224-59.6-116.203 0h-31.899v-75h90v-30h-90v-135h30v90h243.435c7.06 17.562 24.257 30 44.315 30h58.759c6.969 34.191 37.272 60 73.491 60z"></path></svg>